<svg xmlns="http://www.w3.org/2000/svg" xmlns:xlink="http://www.w3.org/1999/xlink" width="736" height="264" version="1.1" viewBox="0 0 736 264"><title>Page 1</title><desc>Created with Sketch.</desc><defs><polygon id="path-1" points="0 263.99 735.952 263.99 735.952 0 0 0"/></defs><g id="Issuer" fill="none" fill-rule="evenodd" stroke="none" stroke-width="1"><g id="HD---Issuer---Empty" transform="translate(-331.000000, -280.000000)"><g id="Place-Holder-Image" transform="translate(331.000000, 232.000000)"><g id="Page-1" transform="translate(0.000000, 48.000000)"><path id="Fill-1" fill="#E6E6E6" d="M644.242765,236.675175 C644.242765,240.946613 630.711086,244.40955 614.019673,244.40955 C597.32826,244.40955 583.796581,240.946613 583.796581,236.675175 C583.796581,232.403738 597.32826,228.9408 614.019673,228.9408 C630.711086,228.9408 644.242765,232.403738 644.242765,236.675175 L644.242765,236.675175 Z"/><path id="Fill-3" fill="#E6E6E6" d="M118.936081,233.297728 C118.936081,236.284228 109.476512,238.704572 97.806782,238.704572 C86.1380853,238.704572 76.6774826,236.284228 76.6774826,233.297728 C76.6774826,230.311228 86.1380853,227.890884 97.806782,227.890884 C109.476512,227.890884 118.936081,230.311228 118.936081,233.297728"/><mask id="mask-2" fill="#fff"><use xlink:href="#path-1"/></mask><polygon id="Fill-5" fill="#CCC" points="161.879 111.906 211.476 111.906 211.476 108.812 161.879 108.812" mask="url(#mask-2)"/><polygon id="Fill-7" fill="#CCC" points="161.879 134.594 190.811 134.594 190.811 131.5 161.879 131.5" mask="url(#mask-2)"/><polygon id="Fill-8" fill="#CCC" points="161.879 157.281 190.811 157.281 190.811 154.187 161.879 154.187" mask="url(#mask-2)"/><polygon id="Fill-9" fill="#CCC" points="161.879 179.97 190.811 179.97 190.811 176.876 161.879 176.876" mask="url(#mask-2)"/><polygon id="Fill-10" fill="#CCC" points="161.879 202.657 201.143 202.657 201.143 199.563 161.879 199.563" mask="url(#mask-2)"/><polygon id="Fill-11" fill="#FFF" points="489.454 209.332 443.837 183.047 443.837 130.477 489.454 104.191 535.071 130.477 535.071 183.047" mask="url(#mask-2)"/><path id="Fill-12" fill="#E79DA9" d="M446.937534,181.260956 L489.453417,205.760362 L531.970333,181.260956 L531.970333,132.263175 L489.453417,107.763769 L446.937534,132.263175 L446.937534,181.260956 Z M489.453417,212.904863 L440.737926,184.833206 L440.737926,128.690925 L489.453417,100.619269 L538.169941,128.690925 L538.169941,184.833206 L489.453417,212.904863 Z" mask="url(#mask-2)"/><polygon id="Fill-13" fill="#E7A1AA" points="518.7 174.006 497.819 146.991 484.429 166 475.831 153.793 459.701 174.062 491.961 174.062 491.922 174.006" mask="url(#mask-2)"/><path id="Fill-14" fill="#E7A1AA" d="M481.246272,140.467388 C481.246272,143.494106 478.788127,145.94745 475.755485,145.94745 C472.722843,145.94745 470.264698,143.494106 470.264698,140.467388 C470.264698,137.440669 472.722843,134.987325 475.755485,134.987325 C478.788127,134.987325 481.246272,137.440669 481.246272,140.467388" mask="url(#mask-2)"/><path id="Fill-15" fill="#FFF" d="M256.314965,207.922791 C228.264836,207.922791 205.44511,185.147634 205.44511,157.153322 C205.44511,129.157978 228.264836,106.382822 256.314965,106.382822 C284.364061,106.382822 307.183787,129.157978 307.183787,157.153322 C307.183787,185.147634 284.364061,207.922791 256.314965,207.922791" mask="url(#mask-2)"/><path id="Fill-16" fill="#E79DA9" d="M256.314965,102.837797 C226.306793,102.837797 201.892734,127.203141 201.892734,157.152703 C201.892734,187.102266 226.306793,211.467609 256.314965,211.467609 C286.323137,211.467609 310.736163,187.102266 310.736163,157.152703 C310.736163,127.203141 286.323137,102.837797 256.314965,102.837797 M256.314965,109.928672 C282.447349,109.928672 303.631411,131.071359 303.631411,157.152703 C303.631411,183.234047 282.447349,204.376734 256.314965,204.376734 C230.182582,204.376734 208.998519,183.234047 208.998519,157.152703 C208.998519,131.071359 230.182582,109.928672 256.314965,109.928672" mask="url(#mask-2)"/><path id="Fill-17" fill="#E6E6E6" d="M458.892343,252.565191 C458.892343,258.874378 422.13383,263.989378 376.790926,263.989378 C331.446989,263.989378 294.689509,258.874378 294.689509,252.565191 C294.689509,246.256003 331.446989,241.141003 376.790926,241.141003 C422.13383,241.141003 458.892343,246.256003 458.892343,252.565191" mask="url(#mask-2)"/><path id="Fill-18" fill="#E6E6E6" d="M305.365545,228.928322 C305.365545,232.630509 283.797107,235.631447 257.191486,235.631447 C230.584833,235.631447 209.016395,232.630509 209.016395,228.928322 C209.016395,225.226134 230.584833,222.225197 257.191486,222.225197 C283.797107,222.225197 305.365545,225.226134 305.365545,228.928322" mask="url(#mask-2)"/><path id="Fill-19" fill="#E6E6E6" d="M537.065481,228.928322 C537.065481,232.630509 515.497043,235.631447 488.891422,235.631447 C462.284769,235.631447 440.71633,232.630509 440.71633,228.928322 C440.71633,225.226134 462.284769,222.225197 488.891422,222.225197 C515.497043,222.225197 537.065481,225.226134 537.065481,228.928322" mask="url(#mask-2)"/><path id="Fill-20" fill="#E7A1AA" d="M287.92553,144.380466 C287.92553,148.306434 284.736864,151.487841 280.804246,151.487841 C276.870594,151.487841 273.681929,148.306434 273.681929,144.380466 C273.681929,140.454497 276.870594,137.273091 280.804246,137.273091 C284.736864,137.273091 287.92553,140.454497 287.92553,144.380466" mask="url(#mask-2)"/><path id="Fill-21" fill="#E7A1AA" d="M240.39375,144.380466 C240.39375,148.306434 237.205085,151.487841 233.272467,151.487841 C229.338815,151.487841 226.15015,148.306434 226.15015,144.380466 C226.15015,140.454497 229.338815,137.273091 233.272467,137.273091 C237.205085,137.273091 240.39375,140.454497 240.39375,144.380466" mask="url(#mask-2)"/><path id="Fill-22" fill="#E7A1AA" d="M238.81595,167.012588 C238.81595,163.190775 240.930016,159.856744 244.04842,158.099494 C243.157742,157.06515 241.853758,156.392775 240.387551,156.392775 L226.156349,156.392775 C223.489484,156.392775 221.307222,158.570775 221.307222,161.233463 L221.307222,162.646275 C221.307222,165.308963 223.489484,167.485931 226.156349,167.485931 L238.839715,167.485931 C238.832482,167.32815 238.81595,167.172431 238.81595,167.012588" mask="url(#mask-2)"/><path id="Fill-23" fill="#E7A1AA" d="M287.91964,156.392878 L273.688438,156.392878 C272.13027,156.392878 270.752924,157.147753 269.864313,158.296566 C272.802928,160.098159 274.772337,163.325972 274.772337,167.012691 C274.772337,167.172534 274.755804,167.328253 274.748571,167.486034 L287.91964,167.486034 C290.586505,167.486034 292.768767,165.309066 292.768767,162.646378 L292.768767,161.232534 C292.768767,158.570878 290.586505,156.392878 287.91964,156.392878" mask="url(#mask-2)"/><path id="Fill-24" fill="#E7A1AA" d="M256.794298,155.593659 C251.406838,155.593659 247.023715,151.219097 247.023715,145.842159 C247.023715,140.465222 251.406838,136.090659 256.794298,136.090659 C262.181758,136.090659 266.564881,140.465222 266.564881,145.842159 C266.564881,151.219097 262.181758,155.593659 256.794298,155.593659" mask="url(#mask-2)"/><path id="Fill-25" fill="#FFF" d="M376.790616,224.200866 C335.220174,224.200866 301.399242,190.445991 301.399242,148.956741 C301.399242,107.467491 335.220174,73.7126156 376.790616,73.7126156 C418.361058,73.7126156 452.18199,107.467491 452.18199,148.956741 C452.18199,190.445991 418.361058,224.200866 376.790616,224.200866" mask="url(#mask-2)"/><path id="Fill-26" fill="#C2132B" d="M376.790926,70.1673844 C333.261407,70.1673844 297.847177,105.511416 297.847177,148.956947 C297.847177,192.401447 333.261407,227.746509 376.790926,227.746509 C420.320445,227.746509 455.734676,192.401447 455.734676,148.956947 C455.734676,105.511416 420.320445,70.1673844 376.790926,70.1673844 M376.790926,77.2582594 C416.466355,77.2582594 448.629924,109.359009 448.629924,148.956947 C448.629924,188.554884 416.466355,220.655634 376.790926,220.655634 C337.115497,220.655634 304.951928,188.554884 304.951928,148.956947 C304.951928,109.359009 337.115497,77.2582594 376.790926,77.2582594" mask="url(#mask-2)"/><path id="Fill-27" fill="#C2132B" d="M357.182184,172.485844 L370.468978,172.485844 L370.468978,130.896563 L357.182184,130.896563 L357.182184,172.485844 Z M383.682411,172.485844 L396.969205,172.485844 L396.969205,130.896563 L383.682411,130.896563 L383.682411,172.485844 Z M410.182638,130.896563 L423.229714,130.896563 L375.854372,97.7398125 L329.767515,130.896563 L343.968751,130.896563 L343.968751,172.485844 L329.767515,172.485844 L329.767515,184.367906 L423.229714,184.367906 L423.229714,172.485844 L410.182638,172.485844 L410.182638,130.896563 Z" mask="url(#mask-2)"/><polygon id="Fill-28" fill="#CCC" points="504.751 83.203 507.851 83.203 507.851 63.953 504.751 63.953" mask="url(#mask-2)"/><polygon id="Fill-29" fill="#CCC" points="55.624 147.656 67.162 147.656 67.162 144.563 55.624 144.563" mask="url(#mask-2)"/><polygon id="Fill-30" fill="#CCC" points="68.023 157.969 79.562 157.969 79.562 154.875 68.023 154.875" mask="url(#mask-2)"/><polygon id="Fill-31" fill="#CCC" points="55.624 168.281 67.162 168.281 67.162 165.188 55.624 165.188" mask="url(#mask-2)"/><path id="Fill-32" fill="#CCC" d="M579.729534,71.0850938 C578.512344,69.795 577.842787,68.008875 577.842787,66.0567188 C577.842787,62.0864063 580.616078,58.067625 585.91881,58.067625 C591.257706,58.067625 596.459178,62.8670625 596.510841,62.9165625 L597.608172,63.9395625 L598.667272,62.8815 C614.000971,47.5798125 626.112939,56.4000938 626.616141,56.7795938 L629.109417,58.6894688 L629.109417,55.5524063 C629.109417,40.9334063 641.025065,29.04 655.672673,29.04 C670.320282,29.04 682.236963,40.9334063 682.236963,55.5524063 C682.236963,59.932125 681.140665,64.2345 679.081362,68.0645625 L664.984485,68.0645625 L664.984485,71.1583125 L695.031922,71.1583125 L695.031922,68.0645625 L682.547977,68.0645625 C684.369628,64.1654063 685.336767,59.8919063 685.336767,55.5524063 C685.336767,39.2277188 672.029307,25.94625 655.672673,25.94625 C640.19225,25.94625 627.442755,37.8448125 626.122239,52.9588125 C621.420869,50.7302813 610.283272,47.672625 597.500712,59.7000938 C595.447609,58.0748438 590.87953,54.973875 585.91881,54.973875 C578.660102,54.973875 574.742982,60.6839063 574.742982,66.0567188 C574.742982,68.7998438 575.711155,71.3387813 577.47081,73.2053438 C579.459851,75.31425 582.305472,76.4290313 585.700791,76.4290313 L646.301965,76.4290313 L646.301965,73.3352813 L585.700791,73.3352813 C583.181683,73.3352813 581.117213,72.5566875 579.729534,71.0850938" mask="url(#mask-2)"/><polygon id="Fill-33" fill="#CCC" points="703.408 71.158 710.964 71.158 710.964 68.065 703.408 68.065" mask="url(#mask-2)"/><polygon id="Fill-34" fill="#CCC" points="655.673 85.781 715.962 85.781 715.962 82.688 655.673 82.688" mask="url(#mask-2)"/><polygon id="Fill-35" fill="#CCC" points="726.27 85.781 735.952 85.781 735.952 82.688 726.27 82.688" mask="url(#mask-2)"/><path id="Fill-36" fill="#CCC" d="M165.028208,47.1372 C165.920952,43.915575 166.37249,40.5846375 166.37249,37.2042 C166.37249,16.6895437 149.650079,0.000825 129.09631,0.000825 C117.245758,0.000825 106.102995,5.6458875 99.0798716,15.1529812 C97.747989,14.9116687 96.4202395,14.7899812 95.1214215,14.7899812 C82.7387366,14.7899812 72.6643726,24.8446687 72.6643726,37.2042 C72.6643726,40.6795125 73.4723883,44.0620125 74.9985252,47.1361687 L62.1663687,47.1361687 L62.1663687,50.2299187 L103.48366,50.2299187 L103.48366,47.1361687 L78.5292023,47.1361687 C76.7251162,44.1403875 75.7641769,40.7279812 75.7641769,37.2042 C75.7641769,26.5513875 84.447762,17.8837312 95.1214215,17.8837312 C96.5204665,17.8837312 97.9639421,18.0497625 99.412584,18.3777 L100.431386,18.6076687 L101.027582,17.7517312 C107.425578,8.57360625 117.918416,3.094575 129.09631,3.094575 C147.941054,3.094575 163.272686,18.3952312 163.272686,37.2042 C163.272686,40.9651687 162.663058,44.6601375 161.4624,48.1859812 L160.765977,50.23095 L185.545813,50.23095 L185.545813,47.1372 L165.028208,47.1372 Z" mask="url(#mask-2)"/><polygon id="Fill-37" fill="#CCC" points="83.195 65.879 124.913 65.879 124.913 62.786 83.195 62.786" mask="url(#mask-2)"/><polygon id="Fill-38" fill="#CCC" points="33.856 65.879 75.574 65.879 75.574 62.786 33.856 62.786" mask="url(#mask-2)"/><polygon id="Fill-39" fill="#CCC" points="45.996 50.238 55.081 50.238 55.081 47.145 45.996 47.145" mask="url(#mask-2)"/><polygon id="Fill-40" fill="#CCC" points="191.127 50.227 207.45 50.227 207.45 47.133 191.127 47.133" mask="url(#mask-2)"/><path id="Fill-41" fill="#E7A1AA" d="M249.068966,173.700553 L264.519424,173.700553 C268.205091,173.700553 271.220168,170.691366 271.220168,167.012897 C271.220168,163.334428 268.205091,160.325241 264.519424,160.325241 L249.068966,160.325241 C245.383299,160.325241 242.368222,163.334428 242.368222,167.012897 C242.368222,170.691366 245.383299,173.700553 249.068966,173.700553" mask="url(#mask-2)"/><path id="Fill-42" fill="#CCC" d="M643.20991,151.865897 C639.46018,146.087803 633.994192,141.521428 627.5342,138.891741 L627.710888,138.891741 L627.710888,116.547647 L643.20991,116.547647 L643.20991,151.865897 Z M615.828305,200.826553 L615.828305,191.695866 L627.386442,180.161334 L625.193847,177.974053 L615.828305,187.321303 L615.828305,160.375772 L612.728501,160.375772 L612.728501,176.750991 L604.912861,168.949584 L602.720266,171.136866 L612.728501,181.125553 L612.728501,200.774991 C596.73971,199.709709 584.055311,186.396272 584.055311,170.172647 C584.055311,153.254991 597.845307,139.492959 614.795037,139.492959 C631.744767,139.492959 645.534763,153.254991 645.534763,170.172647 C645.534763,186.743803 632.300665,200.278959 615.828305,200.826553 L615.828305,200.826553 Z M607.643789,116.547647 L624.611084,116.547647 L624.611084,137.852241 C621.503014,136.910709 618.207922,136.399209 614.795037,136.399209 C612.341025,136.399209 609.950043,136.667334 607.643789,137.164397 L607.643789,116.547647 Z M666.54007,179.453897 L666.54007,113.453897 L604.543984,113.453897 L604.543984,136.657022 L561.835914,136.657022 L561.835914,81.6573656 L451.965417,81.6573656 L451.965417,112.422647 L455.065221,112.422647 L455.065221,84.7511156 L558.73611,84.7511156 L558.73611,139.750772 L600.106098,139.750772 C594.034614,142.681584 588.975734,147.375834 585.582481,153.157022 L546.254231,153.157022 L546.254231,156.250772 L583.976783,156.250772 C582.109667,160.351022 581.041268,164.884397 580.968939,169.657022 L547.287499,169.657022 L547.287499,172.750772 L581.064,172.750772 C582.33802,189.492084 595.885198,202.859147 612.728501,203.876991 L612.728501,238.235147 L615.828305,238.235147 L615.828305,203.920303 C634.010724,203.371678 648.634568,188.449491 648.634568,170.172647 C648.634568,165.841397 647.804853,161.702991 646.309714,157.894584 L646.309714,116.547647 L663.440266,116.547647 L663.440266,182.547647 L705.287624,182.547647 L705.287624,179.453897 L666.54007,179.453897 Z" mask="url(#mask-2)"/><polygon id="Fill-43" fill="#CCC" points="545.049 135.109 548.149 135.109 548.149 93.859 545.049 93.859" mask="url(#mask-2)"/><polygon id="Fill-44" fill="#CCC" points="531.616 116.547 534.716 116.547 534.716 93.859 531.616 93.859" mask="url(#mask-2)"/><polygon id="Fill-45" fill="#CCC" points="518.184 111.39 521.284 111.39 521.284 93.859 518.184 93.859" mask="url(#mask-2)"/><polygon id="Fill-46" fill="#CCC" points="504.751 103.14 507.851 103.14 507.851 93.859 504.751 93.859" mask="url(#mask-2)"/><polygon id="Fill-47" fill="#CCC" points="491.319 96.953 494.419 96.953 494.419 93.859 491.319 93.859" mask="url(#mask-2)"/><polygon id="Fill-48" fill="#CCC" points="477.886 100.047 480.986 100.047 480.986 93.859 477.886 93.859" mask="url(#mask-2)"/><polygon id="Fill-49" fill="#CCC" points="464.454 107.265 467.554 107.265 467.554 93.859 464.454 93.859" mask="url(#mask-2)"/><polygon id="Fill-50" fill="#CCC" points="109.182 146.282 131.914 146.282 131.914 143.188 109.182 143.188" mask="url(#mask-2)"/><polygon id="Fill-51" fill="#CCC" points="161.879 89.219 242.474 89.219 242.474 86.125 161.879 86.125" mask="url(#mask-2)"/><path id="Fill-52" fill="#CCC" d="M119.372741,186.804647 C119.372741,197.974116 110.575496,207.107897 99.5370928,207.727678 L99.5370928,202.044459 L107.480858,194.117241 L105.289296,191.929959 L99.5370928,197.669897 L99.5370928,179.956116 L96.4372885,179.956116 L96.4372885,190.279959 L91.7689832,185.621803 L89.5774215,187.809084 L96.4372885,194.654522 L96.4372885,207.691584 C85.7388305,206.723241 77.3249284,197.730741 77.3249284,186.804647 C77.3249284,175.235053 86.7565996,165.821803 98.3488344,165.821803 C109.941069,165.821803 119.372741,175.235053 119.372741,186.804647 L119.372741,186.804647 Z M291.230024,76.5011156 L291.230024,94.8223031 L262.622964,85.5183656 L262.622964,61.0323656 L142.418752,61.0323656 L142.418752,126.344522 L99.7106818,126.344522 L99.7106818,92.8288969 L38.7478638,92.8288969 L38.7478638,158.828897 L0.000309980429,158.828897 L0.000309980429,161.922647 L41.8476681,161.922647 L41.8476681,95.9226469 L66.4735468,95.9226469 L66.4735468,123.938616 L55.6242317,123.938616 L55.6242317,127.032366 L66.4735468,127.032366 L66.4735468,184.953553 L69.5733511,184.953553 L69.5733511,137.344866 L79.5619538,137.344866 L79.5619538,134.251116 L69.5733511,134.251116 L69.5733511,116.719866 L79.5619538,116.719866 L79.5619538,113.626116 L69.5733511,113.626116 L69.5733511,95.9226469 L96.6108775,95.9226469 L96.6108775,127.891397 L96.6108775,129.438272 L96.6108775,162.798178 C84.1176329,163.690209 74.2251241,174.113053 74.2251241,186.804647 C74.2251241,199.438491 84.0267053,209.823178 96.4372885,210.799772 L96.4372885,234.388584 L99.5370928,234.388584 L99.5370928,210.851334 C112.047903,210.242897 122.07887,200.076834 122.453946,187.531678 L131.914549,187.531678 L131.914549,184.437928 L122.354752,184.437928 C121.639731,177.161428 117.665782,170.825428 111.912545,166.906678 L131.914549,166.906678 L131.914549,163.812928 L106.082846,163.812928 L106.082846,164.004741 C104.064874,163.321022 101.924975,162.910584 99.7106818,162.784772 L99.7106818,129.438272 L142.418752,129.438272 L142.418752,208.844522 L145.518557,208.844522 L145.518557,129.438272 L145.518557,127.891397 L145.518557,64.1261156 L259.523159,64.1261156 L259.523159,87.7633969 L294.329829,99.0844594 L294.329829,79.5948656 L303.765633,79.5948656 L303.765633,95.7978656 L306.865437,95.7978656 L306.865437,79.5948656 L316.352905,79.5948656 L316.352905,86.9848031 L319.452709,86.9848031 L319.452709,76.5011156 L291.230024,76.5011156 Z" mask="url(#mask-2)"/></g></g></g></g></svg>