<svg xmlns="http://www.w3.org/2000/svg" xmlns:xlink="http://www.w3.org/1999/xlink" id="Layer_1" x="0" y="0" enable-background="new -465 462 84 84" version="1.1" viewBox="-465 462 84 84" xml:space="preserve"><style type="text/css">.st0{filter:url(#Adobe_OpacityMaskFilter)}.st1{fill:#fff}.st2{mask:url(#mask-2)}.st3{fill:none;stroke:#e1e0e5;stroke-width:4}.st4{fill:#05012c;fill-opacity:.12}</style><title>placeholderavatar-issuer</title><desc>Created with Sketch.</desc><g id="Symbols"><g id="Placeholder-_x2F_-Issuer"><defs><filter id="Adobe_OpacityMaskFilter" width="84" height="84" x="-465" y="462" filterUnits="userSpaceOnUse"><feColorMatrix type="matrix" values="1 0 0 0 0 0 1 0 0 0 0 0 1 0 0 0 0 0 1 0"/></filter></defs><mask id="mask-2" width="84" height="84" x="-465" y="462" maskUnits="userSpaceOnUse"><g class="st0"><path id="path-1" d="M-457,464h68c3.3,0,6,2.7,6,6v68c0,3.3-2.7,6-6,6h-68c-3.3,0-6-2.7-6-6v-68 C-463,466.7-460.3,464-457,464z" class="st1"/></g></mask><g id="image" class="st2"><g id="bounds"><path id="path-1_1_" d="M-457,464h68c3.3,0,6,2.7,6,6v68c0,3.3-2.7,6-6,6h-68c-3.3,0-6-2.7-6-6v-68 C-463,466.7-460.3,464-457,464z" class="st3"/></g></g></g></g><g><circle cx="-423" cy="504" r="3.8" class="st4"/><circle cx="-412" cy="504" r="3.8" class="st4"/><circle cx="-434" cy="504" r="3.8" class="st4"/></g></svg>