<svg xmlns="http://www.w3.org/2000/svg" xmlns:xlink="http://www.w3.org/1999/xlink" width="80" height="80" version="1.1" viewBox="0 0 80 80"><title>placeholderavatar</title><desc>Created with Sketch.</desc><defs><rect id="path-1" width="80" height="79.999" x="0" y="0" rx="6"/><mask id="mask-2" width="80" height="79.999" x="0" y="0" fill="#fff" maskContentUnits="userSpaceOnUse" maskUnits="objectBoundingBox"><use xlink:href="#path-1"/></mask><polygon id="path-3" points="8.904 .121 .011 .121 .011 9.135 8.904 9.135 8.904 .121"/></defs><g id="Symbols" fill="none" fill-rule="evenodd" stroke="none" stroke-width="1"><g id="Placeholder-/-Badge"><g id="image"><use id="bounds" stroke="#E1E0E5" stroke-width="4" mask="url(#mask-2)" xlink:href="#path-1"/><g id="icon" opacity=".3" transform="translate(16.000000, 24.000000)"><polygon id="Fill-1" fill="#CCC" points="20.024 25.722 13.062 15.683 0 32.353 26.123 32.353 26.091 32.306 47.775 32.306 30.866 10.089"/><g id="Group-4" transform="translate(8.542952, 0.095472)"><mask id="mask-4" fill="#fff"><use xlink:href="#path-3"/></mask><path id="Fill-2" fill="#CCC" d="M8.90369957,4.62802537 C8.90369957,7.11723298 6.91297817,9.1351408 4.4573066,9.1351408 C2.0018486,9.1351408 0.0111271951,7.11723298 0.0111271951,4.62802537 C0.0111271951,2.13881776 2.0018486,0.120909937 4.4573066,0.120909937 C6.91297817,0.120909937 8.90369957,2.13881776 8.90369957,4.62802537" mask="url(#mask-4)"/></g></g></g></g></g></svg>