<svg xmlns="http://www.w3.org/2000/svg" xmlns:xlink="http://www.w3.org/1999/xlink" width="48" height="48" version="1.1" viewBox="0 0 48 48"><title>Shape</title><desc>Created with Sketch.</desc><g id="Issuer" fill="none" fill-opacity=".12" fill-rule="evenodd" stroke="none" stroke-width="1"><g id="HD---Issuer-Detail" fill="#C30A28" stroke="#C30A28" transform="translate(-1041.000000, -525.000000)"><g id="pathways" transform="translate(208.000000, 456.000000)"><g id="card:-empty" transform="translate(692.000000, 48.000000)"><g id="new-pathway" transform="translate(113.000000, 22.000000)"><path id="Shape" d="M52,0 C39.304,0 29,10.304 29,23 C29,35.696 39.304,46 52,46 C64.696,46 75,35.696 75,23 C75,10.304 64.696,0 52,0 L52,0 Z M63.5,25.3 L54.3,25.3 L54.3,34.5 L49.7,34.5 L49.7,25.3 L40.5,25.3 L40.5,20.7 L49.7,20.7 L49.7,11.5 L54.3,11.5 L54.3,20.7 L63.5,20.7 L63.5,25.3 L63.5,25.3 Z"/></g></g></g></g></g></svg>