<svg xmlns="http://www.w3.org/2000/svg" xmlns:xlink="http://www.w3.org/1999/xlink" width="24" height="24" version="1.1" viewBox="0 0 24 24"><title>icon-list-white</title><desc>Created with Sketch.</desc><g id="Symbols" fill="none" fill-rule="evenodd" stroke="none" stroke-width="1"><g id="Icon-/-List-/-White"><g id="icon"><g><rect id="bounds" width="24" height="24" x="0" y="0"/><path id="icon-list-red" fill="#FFF" d="M3,3 L7,3 L7,7 L3,7 L3,3 Z M9,4 L21,4 L21,6 L9,6 L9,4 Z M3,10 L7,10 L7,14 L3,14 L3,10 Z M9,11 L21,11 L21,13 L9,13 L9,11 Z M3,17 L7,17 L7,21 L3,21 L3,17 Z M9,18 L21,18 L21,20 L9,20 L9,18 Z"/></g></g></g></g></svg>