<svg xmlns="http://www.w3.org/2000/svg" xmlns:xlink="http://www.w3.org/1999/xlink" width="24" height="24" version="1.1" viewBox="0 0 24 24"><title>icon-search-blue</title><desc>Created with Sketch.</desc><g id="Symbols" fill="none" fill-rule="evenodd" stroke="none" stroke-width="1"><g id="Icon-/-Search-/-Blue"><g id="icon"><g id="icon-"><rect id="bounds" width="24" height="24" x="0" y="0"/><path id="icon-search" fill="#05012C" d="M22,20.1890369 L16.821209,15.0102459 C17.8058402,13.6577869 18.3934426,11.9979508 18.3934426,10.1967213 C18.3934426,5.66956967 14.723873,2 10.1967213,2 C5.66956967,2 2,5.66956967 2,10.1967213 C2,14.723873 5.66956967,18.3934426 10.1967213,18.3934426 C11.9979508,18.3934426 13.6577869,17.8058402 15.0102459,16.821209 L20.1890369,22 L22,20.1890369 L22,20.1890369 Z M10.1967213,15.8319672 C7.08965164,15.8319672 4.56147541,13.303791 4.56147541,10.1967213 C4.56147541,7.08965164 7.08965164,4.56147541 10.1967213,4.56147541 C13.303791,4.56147541 15.8319672,7.08965164 15.8319672,10.1967213 C15.8319672,13.303791 13.303791,15.8319672 10.1967213,15.8319672 L10.1967213,15.8319672 Z"/></g></g></g></g></svg>